<?xml version="1.0" encoding="UTF-8" standalone="no"?>
<!-- Created with Inkscape (http://www.inkscape.org/) -->

<svg
   xmlns:dc="http://purl.org/dc/elements/1.1/"
   xmlns:cc="http://creativecommons.org/ns#"
   xmlns:rdf="http://www.w3.org/1999/02/22-rdf-syntax-ns#"
   xmlns:svg="http://www.w3.org/2000/svg"
   xmlns="http://www.w3.org/2000/svg"
   xmlns:sodipodi="http://sodipodi.sourceforge.net/DTD/sodipodi-0.dtd"
   xmlns:inkscape="http://www.inkscape.org/namespaces/inkscape"
   width="297mm"
   height="210mm"
   viewBox="0 0 297 210"
   version="1.1"
   id="svg8"
   inkscape:version="0.92.1 r15371"
   sodipodi:docname="butterfly.svg">
  <defs
     id="defs2" />
  <sodipodi:namedview
     id="base"
     pagecolor="#ffffff"
     bordercolor="#666666"
     borderopacity="1.0"
     inkscape:pageopacity="0.0"
     inkscape:pageshadow="2"
     inkscape:zoom="7.919596"
     inkscape:cx="559.12251"
     inkscape:cy="382.72096"
     inkscape:document-units="mm"
     inkscape:current-layer="svg8"
     showgrid="false"
     inkscape:window-width="1852"
     inkscape:window-height="1057"
     inkscape:window-x="60"
     inkscape:window-y="-8"
     inkscape:window-maximized="1"
     fit-margin-top="0"
     fit-margin-left="0"
     fit-margin-right="0"
     fit-margin-bottom="0" />
  <metadata
     id="metadata5">
    <rdf:RDF>
      <cc:Work
         rdf:about="">
        <dc:format>image/svg+xml</dc:format>
        <dc:type
           rdf:resource="http://purl.org/dc/dcmitype/StillImage" />
        <dc:title />
      </cc:Work>
    </rdf:RDF>
  </metadata>
  <g
     inkscape:groupmode="layer"
     id="layer4"
     inkscape:label="idle"
     style="display:inline"
     transform="translate(-99.490165,59.99798)"
     sodipodi:insensitive="true">
    <g
       inkscape:groupmode="layer"
       id="layer3"
       inkscape:label="static"
       style="display:none"
       sodipodi:insensitive="true">
      <path
         style="fill:none;stroke:#000000;stroke-width:0.26458332px;stroke-linecap:butt;stroke-linejoin:miter;stroke-opacity:1"
         d="m 247.10051,46.135782 c 3.79221,-1.86739 3.87066,-5.07058 2.77571,-5.26917 -0.93788,0.15631 -6.06766,1.55725 -2.77571,5.26917 z"
         id="path4491"
         inkscape:connector-curvature="0"
         sodipodi:nodetypes="ccc" />
      <path
         style="fill:none;stroke:#000000;stroke-width:0.26458332px;stroke-linecap:butt;stroke-linejoin:miter;stroke-opacity:1"
         d="m 247.10051,46.135782 c -2.96621,1.44454 -4.65078,0.72373 -4.21365,-0.76798 0.43714,-1.49172 2.1234,-2.7973 4.21365,0.76798"
         id="path4493"
         inkscape:connector-curvature="0"
         sodipodi:nodetypes="czc" />
      <path
         style="fill:none;stroke:#000000;stroke-width:0.26499999;stroke-linecap:round;stroke-linejoin:miter;stroke-miterlimit:4;stroke-dasharray:none;stroke-opacity:1"
         d="m 250.74802,44.786302 c -1.19302,-0.19548 -2.40657,0.18947 -3.64751,1.34948 0.93231,-0.30165 1.70305,-0.83378 3.01647,-0.59179"
         id="path4497"
         inkscape:connector-curvature="0"
         sodipodi:nodetypes="ccc" />
    </g>
    <g
       style="display:none"
       inkscape:label="ant-twitch"
       id="g4546"
       inkscape:groupmode="layer"
       sodipodi:insensitive="true">
      <path
         sodipodi:nodetypes="ccc"
         inkscape:connector-curvature="0"
         id="path4540"
         d="m 247.10051,46.135782 c 3.79221,-1.86739 3.87066,-5.07058 2.77571,-5.26917 -0.93788,0.15631 -6.06766,1.55725 -2.77571,5.26917 z"
         style="fill:none;stroke:#000000;stroke-width:0.26458332px;stroke-linecap:butt;stroke-linejoin:miter;stroke-opacity:1" />
      <path
         sodipodi:nodetypes="czc"
         inkscape:connector-curvature="0"
         id="path4542"
         d="m 247.10051,46.135782 c -2.96621,1.44454 -4.65078,0.72373 -4.21365,-0.76798 0.43714,-1.49172 2.1234,-2.7973 4.21365,0.76798"
         style="fill:none;stroke:#000000;stroke-width:0.26458332px;stroke-linecap:butt;stroke-linejoin:miter;stroke-opacity:1" />
      <path
         sodipodi:nodetypes="ccc"
         inkscape:connector-curvature="0"
         id="path4544"
         d="m 250.24689,46.289692 c -0.4009,-1.23612 -1.90544,-1.31392 -3.14638,-0.15391 0.93231,-0.30165 1.06828,-0.36606 2.3817,-0.12407"
         style="fill:none;stroke:#000000;stroke-width:0.26499999;stroke-linecap:round;stroke-linejoin:miter;stroke-miterlimit:4;stroke-dasharray:none;stroke-opacity:1" />
    </g>
    <g
       inkscape:groupmode="layer"
       id="g4554"
       inkscape:label="static copy"
       style="display:none"
       sodipodi:insensitive="true">
      <path
         style="fill:none;stroke:#000000;stroke-width:0.26458332px;stroke-linecap:butt;stroke-linejoin:miter;stroke-opacity:1"
         d="m 247.10051,46.135782 c 3.79221,-1.86739 3.87066,-5.07058 2.77571,-5.26917 -0.93788,0.15631 -6.06766,1.55725 -2.77571,5.26917 z"
         id="path4548"
         inkscape:connector-curvature="0"
         sodipodi:nodetypes="ccc" />
      <path
         style="fill:none;stroke:#000000;stroke-width:0.26458332px;stroke-linecap:butt;stroke-linejoin:miter;stroke-opacity:1"
         d="m 247.10051,46.135782 c -2.96621,1.44454 -4.65078,0.72373 -4.21365,-0.76798 0.43714,-1.49172 2.1234,-2.7973 4.21365,0.76798"
         id="path4550"
         inkscape:connector-curvature="0"
         sodipodi:nodetypes="czc" />
      <path
         style="fill:none;stroke:#000000;stroke-width:0.26499999;stroke-linecap:round;stroke-linejoin:miter;stroke-miterlimit:4;stroke-dasharray:none;stroke-opacity:1"
         d="m 250.74802,44.786302 c -1.19302,-0.19548 -2.40657,0.18947 -3.64751,1.34948 0.93231,-0.30165 1.70305,-0.83378 3.01647,-0.59179"
         id="path4552"
         inkscape:connector-curvature="0"
         sodipodi:nodetypes="ccc" />
    </g>
    <g
       inkscape:groupmode="layer"
       id="layer2"
       inkscape:label="wing-twitch"
       style="display:none;opacity:1"
       sodipodi:insensitive="true">
      <path
         style="fill:none;stroke:#000000;stroke-width:0.26458332px;stroke-linecap:round;stroke-linejoin:round;stroke-opacity:1"
         d="m 247.10051,46.135782 c 0,0 0.59107,-6.43035 -0.81471,-3.73915 -1.40579,2.6912 0.83469,3.70984 0.81471,3.73915 0,0 -1.99531,-4.05736 -4.14868,-0.61768 -2.15339,3.43968 4.27535,0.66606 4.14868,0.61768"
         id="path4490"
         inkscape:connector-curvature="0"
         sodipodi:nodetypes="czczc" />
      <path
         style="fill:none;stroke:#000000;stroke-width:0.26458332px;stroke-linecap:butt;stroke-linejoin:round;stroke-opacity:1"
         d="m 247.10051,46.135782 c 0,0 7.19184,-4.90665 2.06874,-3.70801 -5.12309,1.19863 -2.06874,3.70801 -2.06874,3.70801 -1.24448,0.35815 -5.55568,1.72387 -4.62573,-0.81987 0.92995,-2.54372 4.62573,0.81987 4.62573,0.81987"
         id="path4492"
         inkscape:connector-curvature="0"
         sodipodi:nodetypes="czczc" />
      <path
         style="fill:none;stroke:#000000;stroke-width:0.26458332px;stroke-linecap:round;stroke-linejoin:round;stroke-opacity:1"
         d="m 250.74802,44.786302 c -1.75288,-0.23233 -2.44749,0.87956 -3.64751,1.34948 0.98634,-0.38096 1.65562,-0.91798 3.01647,-0.59179"
         id="path4494"
         inkscape:connector-curvature="0"
         sodipodi:nodetypes="ccc" />
    </g>
  </g>
  <g
     inkscape:label="center"
     inkscape:groupmode="layer"
     id="layer1"
     style="display:inline"
     transform="translate(-99.490165,59.99798)"
     sodipodi:insensitive="true">
    <path
       style="fill:none;stroke:#000000;stroke-width:0.26499999;stroke-linecap:round;stroke-linejoin:miter;stroke-miterlimit:4;stroke-dasharray:none;stroke-opacity:1"
       d="m 247.72193,45.868502 v 0"
       id="path4485"
       inkscape:connector-curvature="0" />
  </g>
  <g
     inkscape:groupmode="layer"
     id="layer6"
     inkscape:label="flap"
     style="display:inline"
     transform="translate(-99.490165,59.99798)">
    <g
       inkscape:groupmode="layer"
       id="layer7"
       inkscape:label="flap 1"
       style="display:inline">
      <path
         style="display:inline;fill:none;stroke:#000000;stroke-width:0.26458333;stroke-linecap:butt;stroke-linejoin:miter;stroke-opacity:1;stroke-miterlimit:4;stroke-dasharray:none"
         d="m 247.72193,45.868502 c 3.79221,-1.86739 3.87066,-5.07058 2.77571,-5.26917 -0.93788,0.15631 -6.06766,1.55725 -2.77571,5.26917 z"
         id="path4491-7"
         inkscape:connector-curvature="0"
         sodipodi:nodetypes="ccc" />
      <path
         style="display:inline;fill:none;stroke:#000000;stroke-width:0.26458333;stroke-linecap:butt;stroke-linejoin:miter;stroke-opacity:1;stroke-miterlimit:4;stroke-dasharray:none"
         d="m 247.72193,45.868502 c -2.96621,1.44454 -4.65078,0.72373 -4.21365,-0.76798 0.43714,-1.49172 2.1234,-2.7973 4.21365,0.76798"
         id="path4493-2"
         inkscape:connector-curvature="0"
         sodipodi:nodetypes="czc" />
      <path
         style="display:inline;fill:none;stroke:#000000;stroke-width:0.26458333;stroke-linecap:round;stroke-linejoin:miter;stroke-miterlimit:4;stroke-dasharray:none;stroke-opacity:1"
         d="m 251.36944,44.519022 c -1.19302,-0.19548 -2.40657,0.18947 -3.64751,1.34948 0.93231,-0.30165 1.70305,-0.83378 3.01647,-0.59179"
         id="path4497-8"
         inkscape:connector-curvature="0"
         sodipodi:nodetypes="ccc" />
    </g>
  </g>
</svg>
